<?xml version="1.0" standalone="no"?><!DOCTYPE svg PUBLIC "-//W3C//DTD SVG 1.1//EN" "http://www.w3.org/Graphics/SVG/1.1/DTD/svg11.dtd"><svg t="1656829833716" class="icon" viewBox="0 0 1039 1024" version="1.1" xmlns="http://www.w3.org/2000/svg" p-id="2444" xmlns:xlink="http://www.w3.org/1999/xlink" width="202.9296875" height="200"><defs><style type="text/css">@font-face { font-family: feedback-iconfont; src: url("//at.alicdn.com/t/font_1031158_u69w8yhxdu.woff2?t=1630033759944") format("woff2"), url("//at.alicdn.com/t/font_1031158_u69w8yhxdu.woff?t=1630033759944") format("woff"), url("//at.alicdn.com/t/font_1031158_u69w8yhxdu.ttf?t=1630033759944") format("truetype"); }
</style></defs><path d="M192.843691 385.687382h694.237288v77.137477h-694.237288z" fill="#E78E00" p-id="2445"></path><path d="M779.088512 944.934087h-478.252354c-102.207156 0-185.129944-82.922787-185.129943-185.129944v-478.252354c0-102.207156 82.922787-185.129944 185.129943-185.129943h53.996234c28.926554 0 53.996234 17.355932 63.638418 42.425612l42.425612 73.280602h318.19209c102.207156 0 185.129944 82.922787 185.129944 185.129944v362.546139c0 102.207156-82.922787 185.129944-185.129944 185.129944z m-586.244821-185.129944c0 59.781544 48.210923 107.992467 107.992467 107.992467h478.252354c59.781544 0 107.992467-48.210923 107.992467-107.992467v-362.546139c0-59.781544-48.210923-107.992467-107.992467-107.992467h-322.048964c-28.926554 0-53.996234-17.355932-63.638418-42.425612l-42.425612-73.280603h-48.210923c-59.781544 0-107.992467 48.210923-107.992467 107.992467v478.252354z" fill="#388CEB" p-id="2446"></path></svg>